<?xml version="1.0" encoding="UTF-8" standalone="no"?>
<!-- Created with Inkscape (http://www.inkscape.org/) -->

<svg
   xmlns:dc="http://purl.org/dc/elements/1.1/"
   xmlns:cc="http://creativecommons.org/ns#"
   xmlns:rdf="http://www.w3.org/1999/02/22-rdf-syntax-ns#"
   xmlns:svg="http://www.w3.org/2000/svg"
   xmlns="http://www.w3.org/2000/svg"
   xmlns:sodipodi="http://sodipodi.sourceforge.net/DTD/sodipodi-0.dtd"
   xmlns:inkscape="http://www.inkscape.org/namespaces/inkscape"
   width="311.34885"
   height="137.38232"
   id="svg4470"
   version="1.1"
   inkscape:version="0.48.4 r9939"
   sodipodi:docname="Final logo - inkscape svg.svg"
   inkscape:label="Text"
   inkscape:export-filename="C:\Users\Joshua\Desktop\New EARS Logo_REVISED\Final\Final logo - png 3000x1324 transparentbg.png"
   inkscape:export-xdpi="867.36047"
   inkscape:export-ydpi="867.36047">
  <defs
     id="defs4472">
    <clipPath
       clipPathUnits="userSpaceOnUse"
       id="clipPath2999">
      <path
         inkscape:connector-curvature="0"
         d="m 0,283.465 283.465,0 L 283.465,0 0,0 0,283.465 z"
         id="path3001" />
    </clipPath>
  </defs>
  <sodipodi:namedview
     id="base"
     pagecolor="#ffffff"
     bordercolor="#666666"
     borderopacity="1.0"
     inkscape:pageopacity="0"
     inkscape:pageshadow="2"
     inkscape:zoom="2.8"
     inkscape:cx="236.84303"
     inkscape:cy="54.126925"
     inkscape:document-units="px"
     showgrid="false"
     inkscape:window-width="1920"
     inkscape:window-height="1003"
     inkscape:window-x="1911"
     inkscape:window-y="-9"
     inkscape:window-maximized="1"
     inkscape:current-layer="layer2"
     fit-margin-top="10"
     fit-margin-left="10"
     fit-margin-right="10"
     fit-margin-bottom="10"
     inkscape:object-nodes="false"
     showguides="true"
     inkscape:guide-bbox="true" />
  <metadata
     id="metadata4475">
    <rdf:RDF>
      <cc:Work
         rdf:about="">
        <dc:format>image/svg+xml</dc:format>
        <dc:type
           rdf:resource="http://purl.org/dc/dcmitype/StillImage" />
        <dc:title></dc:title>
      </cc:Work>
    </rdf:RDF>
  </metadata>
  <g
     inkscape:groupmode="layer"
     id="layer3"
     inkscape:label="Masks"
     style="display:none"
     transform="translate(3.9319996,-13.291785)">
    <rect
       style="fill:#ff0000;fill-opacity:0.60084031;stroke-width:1.61417723;stroke-linejoin:miter;stroke-miterlimit:10.39999962;stroke-dasharray:none;display:inline"
       id="rect3790"
       width="119"
       height="123.368"
       x="-23.681999"
       y="36.870464" />
  </g>
  <g
     inkscape:groupmode="layer"
     id="layer1"
     inkscape:label="Line art"
     transform="translate(-22.463191,-4.90625)"
     style="display:inline">
    <path
       style="fill:none;stroke:#000000;stroke-width:1.53523791;stroke-linecap:butt;stroke-linejoin:miter;stroke-miterlimit:4;stroke-opacity:1;stroke-dasharray:none"
       d="m 230.65809,38.660089 -1.57032,6.545633 5.46534,-5.151447"
       id="path4013"
       inkscape:connector-curvature="0"
       inkscape:export-filename="C:\Users\Joshua\Desktop\New EARS Logo_REVISED\new EARS logo option 3 - png.png"
       inkscape:export-xdpi="926.65839"
       inkscape:export-ydpi="926.65839" />
    <path
       style="fill:none;stroke:#000000;stroke-width:1.53523791;stroke-linecap:butt;stroke-linejoin:miter;stroke-miterlimit:4;stroke-opacity:1;stroke-dasharray:none"
       d="m 229.44525,34.687927 6.30318,-11.432509 c 0,0 6.6277,-1.181548 9.53206,5.629125 l -6.3923,10.126867"
       id="path4015"
       inkscape:connector-curvature="0"
       inkscape:export-filename="C:\Users\Joshua\Desktop\New EARS Logo_REVISED\new EARS logo option 3 - png.png"
       inkscape:export-xdpi="926.65839"
       inkscape:export-ydpi="926.65839" />
    <path
       style="fill:none;stroke:#000000;stroke-width:1.53523791;stroke-linecap:butt;stroke-linejoin:miter;stroke-miterlimit:4;stroke-opacity:1;stroke-dasharray:none"
       d="m 239.52201,37.988144 16.14688,8.382098 5.47821,-9.085977 -16.21058,-7.941017"
       id="path4017"
       inkscape:connector-curvature="0"
       inkscape:export-filename="C:\Users\Joshua\Desktop\New EARS Logo_REVISED\new EARS logo option 3 - png.png"
       inkscape:export-xdpi="926.65839"
       inkscape:export-ydpi="926.65839" />
    <path
       style="fill:none;stroke:#000000;stroke-width:1.53523791;stroke-linecap:butt;stroke-linejoin:miter;stroke-miterlimit:4;stroke-opacity:1;stroke-dasharray:none"
       d="m 248.29132,42.408617 5.58651,-8.874247"
       id="path4019"
       inkscape:connector-curvature="0"
       inkscape:export-filename="C:\Users\Joshua\Desktop\New EARS Logo_REVISED\new EARS logo option 3 - png.png"
       inkscape:export-xdpi="926.65839"
       inkscape:export-ydpi="926.65839" />
    <path
       style="fill:none;stroke:#000000;stroke-width:1.53523791;stroke-linecap:butt;stroke-linejoin:miter;stroke-miterlimit:4;stroke-opacity:1;stroke-dasharray:none"
       d="m 230.15714,32.403141 -16.54499,-8.029269 6.0833,-8.468392 15.48288,7.932124"
       id="path4021"
       inkscape:connector-curvature="0"
       inkscape:export-filename="C:\Users\Joshua\Desktop\New EARS Logo_REVISED\new EARS logo option 3 - png.png"
       inkscape:export-xdpi="926.65839"
       inkscape:export-ydpi="926.65839" />
    <path
       style="fill:none;stroke:#000000;stroke-width:1.53523791;stroke-linecap:butt;stroke-linejoin:miter;stroke-miterlimit:4;stroke-opacity:1;stroke-dasharray:none"
       d="m 221.3289,28.150268 5.40972,-8.371411"
       id="path4023"
       inkscape:connector-curvature="0"
       inkscape:export-filename="C:\Users\Joshua\Desktop\New EARS Logo_REVISED\new EARS logo option 3 - png.png"
       inkscape:export-xdpi="926.65839"
       inkscape:export-ydpi="926.65839" />
    <rect
       style="fill:none;stroke:#000000;stroke-width:1.5;stroke-linejoin:round;stroke-miterlimit:4;stroke-opacity:1;stroke-dasharray:none"
       id="rect4025"
       width="25.277317"
       height="8.9002867"
       x="152.38943"
       y="30.68709"
       inkscape:export-filename="C:\Users\Joshua\Desktop\New EARS Logo_REVISED\new EARS logo option 3 - png.png"
       inkscape:export-xdpi="926.65839"
       inkscape:export-ydpi="926.65839" />
    <path
       style="fill:none;stroke:#000000;stroke-width:1.5;stroke-linecap:butt;stroke-linejoin:miter;stroke-miterlimit:4;stroke-opacity:1;stroke-dasharray:none"
       d="m 136.1906,35.315261 16.02084,0"
       id="path4027"
       inkscape:connector-curvature="0"
       inkscape:export-filename="C:\Users\Joshua\Desktop\New EARS Logo_REVISED\new EARS logo option 3 - png.png"
       inkscape:export-xdpi="926.65839"
       inkscape:export-ydpi="926.65839" />
    <path
       style="fill:none;stroke:#000000;stroke-width:1.5;stroke-linecap:butt;stroke-linejoin:miter;stroke-miterlimit:4;stroke-opacity:1;stroke-dasharray:none"
       d="m 177.84476,35.315261 16.02084,0"
       id="path4027-7"
       inkscape:connector-curvature="0"
       inkscape:export-filename="C:\Users\Joshua\Desktop\New EARS Logo_REVISED\new EARS logo option 3 - png.png"
       inkscape:export-xdpi="926.65839"
       inkscape:export-ydpi="926.65839" />
    <path
       style="fill:none;stroke:#000000;stroke-width:1.54935408;stroke-linecap:butt;stroke-linejoin:miter;stroke-miterlimit:4;stroke-opacity:1;stroke-dasharray:none"
       d="m 305.96786,-11.154993 11.39495,0"
       id="path4047"
       inkscape:connector-curvature="0"
       inkscape:export-filename="C:\Users\Joshua\Desktop\New EARS Logo_REVISED\new EARS logo option 3 - png.png"
       inkscape:export-xdpi="626.31195"
       inkscape:export-ydpi="626.31195" />
    <path
       sodipodi:type="arc"
       style="fill:none;stroke:#000000;stroke-width:1.50475204;stroke-linejoin:round;stroke-miterlimit:4;stroke-opacity:1;stroke-dasharray:none"
       id="path4049"
       sodipodi:cx="392.85715"
       sodipodi:cy="543.43359"
       sodipodi:rx="4.4642859"
       sodipodi:ry="4.4642859"
       d="m 388.40248,543.72656 a 4.4642859,4.4642859 0 1 1 8.90921,0.002"
       sodipodi:start="3.0759201"
       sodipodi:end="6.3492634"
       sodipodi:open="true"
       transform="matrix(0.99685191,0,0,0.99683207,-70.571919,-552.66245)"
       inkscape:export-filename="C:\Users\Joshua\Desktop\New EARS Logo_REVISED\new EARS logo option 3 - png.png"
       inkscape:export-xdpi="626.31195"
       inkscape:export-ydpi="626.31195" />
    <path
       sodipodi:type="arc"
       style="fill:none;stroke:#000000;stroke-width:1.50475204;stroke-linejoin:round;stroke-miterlimit:4;stroke-opacity:1;stroke-dasharray:none"
       id="path4049-9"
       sodipodi:cx="392.85715"
       sodipodi:cy="543.43359"
       sodipodi:rx="4.4642859"
       sodipodi:ry="4.4642859"
       d="m 388.40248,543.72656 a 4.4642859,4.4642859 0 1 1 8.90921,0.002"
       sodipodi:start="3.0759201"
       sodipodi:end="6.3492634"
       sodipodi:open="true"
       transform="matrix(0.99685191,0,0,0.99683207,-61.315359,-552.66245)"
       inkscape:export-filename="C:\Users\Joshua\Desktop\New EARS Logo_REVISED\new EARS logo option 3 - png.png"
       inkscape:export-xdpi="626.31195"
       inkscape:export-ydpi="626.31195" />
    <path
       sodipodi:type="arc"
       style="fill:none;stroke:#000000;stroke-width:1.50475204;stroke-linejoin:round;stroke-miterlimit:4;stroke-opacity:1;stroke-dasharray:none"
       id="path4049-9-5"
       sodipodi:cx="392.85715"
       sodipodi:cy="543.43359"
       sodipodi:rx="4.4642859"
       sodipodi:ry="4.4642859"
       d="m 388.40248,543.72656 a 4.4642859,4.4642859 0 1 1 8.90921,0.002"
       sodipodi:start="3.0759201"
       sodipodi:end="6.3492634"
       sodipodi:open="true"
       transform="matrix(0.99685191,0,0,0.99683207,-52.236879,-552.66245)"
       inkscape:export-filename="C:\Users\Joshua\Desktop\New EARS Logo_REVISED\new EARS logo option 3 - png.png"
       inkscape:export-xdpi="626.31195"
       inkscape:export-ydpi="626.31195" />
    <path
       style="fill:none;stroke:#000000;stroke-width:1.54700875;stroke-linecap:butt;stroke-linejoin:miter;stroke-miterlimit:4;stroke-opacity:1;stroke-dasharray:none"
       d="m 343.06066,-11.154993 12.11784,0"
       id="path4100"
       inkscape:connector-curvature="0"
       inkscape:export-filename="C:\Users\Joshua\Desktop\New EARS Logo_REVISED\new EARS logo option 3 - png.png"
       inkscape:export-xdpi="626.31195"
       inkscape:export-ydpi="626.31195" />
    <path
       sodipodi:type="arc"
       style="fill:none;stroke:#000000;stroke-width:2.28807616;stroke-linejoin:round;stroke-miterlimit:4;stroke-opacity:1;stroke-dasharray:none"
       id="path4102"
       sodipodi:cx="493.48215"
       sodipodi:cy="553.70148"
       sodipodi:rx="26.339285"
       sodipodi:ry="26.339285"
       d="m 471.8533,568.73314 a 26.339285,26.339285 0 0 1 0.65799,-30.96844"
       sodipodi:start="2.5342421"
       sodipodi:end="3.7914307"
       transform="matrix(0.65557903,0,0,0.65556608,-182.98395,-405.35649)"
       sodipodi:open="true"
       inkscape:export-filename="C:\Users\Joshua\Dropbox\EARS !!!!\Publicity\Logo\New Logo\new EARS logo - png.png"
       inkscape:export-xdpi="626.31195"
       inkscape:export-ydpi="626.31195" />
    <path
       style="fill:none;stroke:#000000;stroke-width:1.5;stroke-linecap:butt;stroke-linejoin:miter;stroke-miterlimit:4;stroke-opacity:1;stroke-dasharray:none"
       d="m 116.14532,-52.514909 0,20.114646"
       id="path4104"
       inkscape:connector-curvature="0"
       inkscape:export-filename="C:\Users\Joshua\Dropbox\EARS !!!!\Publicity\Logo\New Logo\new EARS logo - png.png"
       inkscape:export-xdpi="626.31195"
       inkscape:export-ydpi="626.31195" />
    <path
       style="fill:none;stroke:#000000;stroke-width:1.5;stroke-linecap:butt;stroke-linejoin:miter;stroke-miterlimit:4;stroke-opacity:1;stroke-dasharray:none"
       d="m 90.333982,-42.724592 25.277318,0"
       id="path4106"
       inkscape:connector-curvature="0"
       inkscape:export-filename="C:\Users\Joshua\Dropbox\EARS !!!!\Publicity\Logo\New Logo\new EARS logo - png.png"
       inkscape:export-xdpi="626.31195"
       inkscape:export-ydpi="626.31195" />
    <path
       style="fill:none;stroke:#000000;stroke-width:1.5;stroke-linecap:butt;stroke-linejoin:miter;stroke-miterlimit:4;stroke-opacity:1;stroke-dasharray:none"
       d="m 123.08769,-42.724592 25.98935,0"
       id="path4108"
       inkscape:connector-curvature="0"
       inkscape:export-filename="C:\Users\Joshua\Dropbox\EARS !!!!\Publicity\Logo\New Logo\new EARS logo - png.png"
       inkscape:export-xdpi="626.31195"
       inkscape:export-ydpi="626.31195" />
    <path
       id="path4005-7"
       style="fill:none;stroke:#000000;stroke-width:2.76380086;stroke-linecap:butt;stroke-linejoin:miter;stroke-miterlimit:6.70000029;stroke-opacity:1;stroke-dasharray:none"
       d="m 12.796157,-22.79248 -138.308787,9.630111 125.41880349,6.9945569 M -1.7176489,-6.4092067 -120.51138,-43.684018 2.9544235,-52.615636 M -0.94160933,-6.251666 -145.51757,-27.080295 -20.238359,-35.792094"
       inkscape:connector-curvature="0"
       sodipodi:nodetypes="ccccccccc" />
    <g
       transform="matrix(0.28950262,0,0,-0.28950262,20.437769,132.4266)"
       id="g2995"
       style="fill:#000000;display:inline"
       inkscape:export-filename="C:\Users\Joshua\Desktop\New EARS Logo_REVISED\new EARS logo option 3 - png.png"
       inkscape:export-xdpi="926.65839"
       inkscape:export-ydpi="926.65839">
      <g
         id="g2997"
         clip-path="url(#clipPath2999)"
         style="fill:#000000">
        <g
           id="g3003"
           transform="translate(62.3623,239.2173)"
           style="fill:#000000">
          <path
             inkscape:connector-curvature="0"
             d="m 0,0 c 1.333,2.328 1.805,2.655 4.753,6.35 3.393,4.251 8.887,9.379 8.887,9.379 C 8.979,2.908 6.201,3.497 3.079,-5.261 c -1.277,-3.585 -5.264,-6.065 -6.483,-9.396 -1.413,-3.865 -3.752,-21.835 -1.885,-28.47 1.866,-6.637 9.923,-13.639 9.923,-13.639 0,0 1.407,3.766 1.277,10.006 -0.181,8.711 4.342,11.574 4.342,11.574 0,0 -2.828,-16.101 3.044,-25.577 2.617,-4.222 5.811,-7.039 8.885,-8.999 0.67,-0.426 -0.588,-0.059 -0.218,7.234 -0.231,11.142 1.521,14.901 1.521,14.901 0,0 0.461,-3.079 2.785,-9.625 1.916,-5.405 0.17,-12.336 7.228,-17.811 l 5.972,-2.91 c 0,0 -1.782,4.025 -1.871,8.31 -0.069,3.323 0.465,12.34 0.465,12.34 0,0 1.492,-1.478 2.917,-4.283 1.827,-3.605 -0.479,-13.396 6.918,-18.49 2.73,-1.879 1.057,-0.508 6.338,-4.746 4.762,-3.828 5.717,-2.151 15.406,-7.172 l 11.848,0.988 12.381,-0.978 c 0,0 9.168,2.824 12.131,5.07 4.746,3.597 4.967,3.057 6.465,3.986 2.832,1.758 4.244,1.927 7.816,14.466 2.192,7.685 3.69,11.251 3.69,11.251 0,0 0.761,0.277 1.449,-3.117 0.398,-1.955 0.398,-3.387 -0.994,-10.844 -0.541,-2.881 -0.328,-3.391 -0.235,-7.914 0,0 6.774,3.252 9.711,9.14 2.776,5.571 2.6,8.105 3.27,12.186 0.312,1.926 1.16,7.912 1.887,11.348 0,0 2.468,-5.826 2.345,-12.123 -0.066,-3.247 -1.455,-9.877 -0.256,-8.85 5.385,4.617 16.172,4.861 15.912,17.44 -0.05,2.507 1.151,15.2 1.151,15.2 0,0 3.375,-1.056 3.125,-10.36 -0.018,-0.545 0.807,-5.05 0.713,-5.546 -0.856,-4.394 1.437,-2.305 7.088,8.71 5.502,10.728 3.203,16.9 3.103,21.711 -0.035,1.765 -0.422,5.372 -1.012,9.122 -1.294,8.225 -2.855,12.345 -7.636,16.933 -9.569,9.18 -9.272,11.251 -9.272,11.251 0,0 13.742,-7.541 16.604,-13.58 1.613,-3.397 2.982,-6.202 2.982,-6.202 1.033,0.022 2.334,3.153 2.287,5.355 -0.097,4.876 0.78,9.621 0.78,9.621 0,0 2.855,-3.843 3.054,-13.518 0.086,-4.159 -3.869,-10.758 -1.998,-19.475 0.924,-4.313 0.451,-6.324 1.315,-2.334 0.734,3.383 2.316,5.555 2.847,7.448 1.575,5.626 2.057,6.983 2.057,6.983 0,0 1.482,-1.495 -0.934,-11.087 -2.433,-9.661 -2.185,-12.736 -3.697,-15.721 -1.271,-2.51 -0.853,-2.099 -1.723,-4.552 -0.998,-2.823 -3.22,-8.709 -4.748,-10.303 -2.439,-2.541 -2.646,-5.652 -4.517,-7.541 -12.865,-12.996 -15.303,-12.641 -17.918,-15.367 -0.641,-0.667 -15.045,-8.624 -20.875,-12.345 -3.018,-1.928 -4.613,-4.058 -8.248,-5.853 -5.625,-2.772 -8.291,-6.388 -10.145,-7.724 -2.869,-2.074 -4.48,-4.463 -4.48,-4.463 0,0 -2.721,-1.301 6.558,1.783 11.053,3.676 16.616,1.334 19.586,1.232 1.512,-0.054 0.313,-5.534 -11.039,-16.055 -8.736,-8.091 -15.568,-4.44 -15.568,-4.44 0,0 -1.797,-11.822 -1.336,-15.531 0.445,-3.537 1.65,-2.081 3.725,-12.439 2.593,-29.615 8.427,-48.777 8.427,-48.777 0,0 -18.668,-5.826 -37.955,-5.727 -17.308,0.083 -36.224,6.169 -36.224,6.169 0,0 6.812,29.315 9.761,54.099 0.491,4.143 2.271,7.115 2.271,7.115 0,0 13.626,-19.666 15.904,-22.386 3.468,-4.149 8.598,-3.214 8.598,-3.214 0,0 -4.829,-0.492 -8.174,3.79 -2.278,2.91 -14.841,24.168 -14.841,24.168 l -0.25,12.109 c 0,0 -1.492,-0.529 -10.074,1.029 -9.306,1.684 -17.088,15.71 -16.761,17.453 0.382,2.022 7.372,2.13 17.783,0.863 1.832,-0.225 9.193,-2.12 9.193,-2.12 0,0 -3.994,6.121 -10.849,10.366 -2.641,1.64 -8.914,6.378 -18.391,12.027 -6.088,3.629 -14.919,8.26 -20.303,12.793 -5.157,4.337 -8.761,6.335 -11.429,9.027 -4.795,4.845 -4.508,7.894 -7.988,15.818 -3.704,8.434 -4.007,9.415 -6.355,16.188 -2.106,6.084 -2.059,16.764 -2.059,16.764 0,0 2.965,-2.605 4.985,-13.176 1.972,-10.33 5.269,-2.245 5.269,-2.245 1.505,3.42 -0.176,13.022 0.276,22.502 0.218,4.462 -0.109,2.784 0.532,6.292 0.78,4.282 2.295,6.764 2.295,6.764 0,0 1.131,-5.672 0.397,-7.898 C -8.143,-2.518 -7.776,-4.494 -5.287,-7.41 -4.262,-8.611 -2.059,-3.597 0,0"
             style="fill:#000000;fill-opacity:1;fill-rule:nonzero;stroke:none"
             id="path3005" />
        </g>
      </g>
    </g>
    <path
       style="fill:none;stroke:#000000;stroke-width:1.89435017;stroke-linecap:butt;stroke-linejoin:miter;stroke-miterlimit:4;stroke-opacity:1;stroke-dasharray:none;display:inline"
       d="m 240.68815,-54.11403 31.62505,-8.825664"
       id="path4027-7-1"
       inkscape:connector-curvature="0"
       inkscape:export-filename="C:\Users\Joshua\Dropbox\EARS !!!!\Publicity\Logo\New Logo\new EARS logo - png.png"
       inkscape:export-xdpi="626.31195"
       inkscape:export-ydpi="626.31195" />
    <path
       style="fill:none;stroke:#000000;stroke-width:1.89435017;stroke-linecap:butt;stroke-linejoin:miter;stroke-miterlimit:4;stroke-opacity:1;stroke-dasharray:none;display:inline"
       d="m 234.12387,-36.417292 31.62505,-8.825664"
       id="path4027-7-1-0"
       inkscape:connector-curvature="0"
       inkscape:export-filename="C:\Users\Joshua\Dropbox\EARS !!!!\Publicity\Logo\New Logo\new EARS logo - png.png"
       inkscape:export-xdpi="626.31195"
       inkscape:export-ydpi="626.31195" />
    <path
       style="fill:none;stroke:#000000;stroke-width:1.89435017;stroke-linecap:butt;stroke-linejoin:miter;stroke-miterlimit:4;stroke-opacity:1;stroke-dasharray:none;display:inline"
       d="m 251.05245,-26.23872 31.62505,-8.825664"
       id="path4027-7-1-9"
       inkscape:connector-curvature="0"
       inkscape:export-filename="C:\Users\Joshua\Dropbox\EARS !!!!\Publicity\Logo\New Logo\new EARS logo - png.png"
       inkscape:export-xdpi="626.31195"
       inkscape:export-ydpi="626.31195" />
    <path
       style="fill:none;stroke:#000000;stroke-width:1.5;stroke-linecap:butt;stroke-linejoin:miter;stroke-miterlimit:4;stroke-opacity:1;stroke-dasharray:none"
       d="m 294.07313,46.387376 -0.085,-15.697773 -9.55215,-14.471167 m 9.63716,-0.385486 0,14.856653 9.63715,-14.471167"
       id="path3034"
       inkscape:connector-curvature="0"
       sodipodi:nodetypes="cccccc"
       inkscape:export-filename="C:\Users\Joshua\Desktop\New EARS Logo_REVISED\new EARS logo option 3 - png.png"
       inkscape:export-xdpi="926.65839"
       inkscape:export-ydpi="926.65839" />
    <path
       sodipodi:type="arc"
       style="fill:none;stroke:#000000;stroke-width:2.01249576;stroke-linecap:butt;stroke-linejoin:round;stroke-miterlimit:4;stroke-opacity:1;stroke-dasharray:none"
       id="path3847"
       sodipodi:cx="178.03938"
       sodipodi:cy="49.488224"
       sodipodi:rx="5.8715115"
       sodipodi:ry="5.8715115"
       d="m 181.76387,44.949188 a 5.8715115,5.8715115 0 1 1 -2.7304,-1.24771"
       transform="matrix(-1.0263376,-0.28773981,-0.16064745,-0.61187329,423.82466,120.1806)"
       sodipodi:start="5.3995328"
       sodipodi:end="11.165701"
       sodipodi:open="true"
       inkscape:export-filename="C:\Users\Joshua\Desktop\New EARS Logo_REVISED\new EARS logo option 3 - png.png"
       inkscape:export-xdpi="926.65839"
       inkscape:export-ydpi="926.65839" />
  </g>
  <g
     inkscape:groupmode="layer"
     id="layer2"
     inkscape:label="Text"
     transform="translate(-22.463191,-4.90625)"
     style="display:inline">
    <path
       sodipodi:type="arc"
       style="fill:#000000;fill-opacity:1;stroke:none"
       id="path3794-12"
       sodipodi:cx="310.71429"
       sodipodi:cy="624.50507"
       sodipodi:rx="21.428572"
       sodipodi:ry="21.428572"
       d="m 332.14287,624.50507 a 21.428572,21.428572 0 1 1 -42.85715,0 21.428572,21.428572 0 1 1 42.85715,0 z"
       transform="matrix(0.1079923,0,0,0.10799015,107.20251,62.534102)"
       inkscape:export-filename="C:\Users\Joshua\Desktop\New EARS Logo_REVISED\new EARS logo option 3 - png.png"
       inkscape:export-xdpi="926.65839"
       inkscape:export-ydpi="926.65839" />
    <path
       sodipodi:type="arc"
       style="fill:#000000;fill-opacity:1;stroke:none"
       id="path3794-1-3"
       sodipodi:cx="310.71429"
       sodipodi:cy="624.50507"
       sodipodi:rx="21.428572"
       sodipodi:ry="21.428572"
       d="m 332.14287,624.50507 a 21.428572,21.428572 0 1 1 -42.85715,0 21.428572,21.428572 0 1 1 42.85715,0 z"
       transform="matrix(0.1079923,0,0,0.10799015,148.31281,62.534102)"
       inkscape:export-filename="C:\Users\Joshua\Desktop\New EARS Logo_REVISED\new EARS logo option 3 - png.png"
       inkscape:export-xdpi="926.65839"
       inkscape:export-ydpi="926.65839" />
    <path
       sodipodi:type="arc"
       style="fill:#000000;fill-opacity:1;stroke:none"
       id="path3794-7-3"
       sodipodi:cx="310.71429"
       sodipodi:cy="624.50507"
       sodipodi:rx="21.428572"
       sodipodi:ry="21.428572"
       d="m 332.14287,624.50507 a 21.428572,21.428572 0 1 1 -42.85715,0 21.428572,21.428572 0 1 1 42.85715,0 z"
       transform="matrix(0.1079923,0,0,0.10799015,206.123,62.534102)"
       inkscape:export-filename="C:\Users\Joshua\Desktop\New EARS Logo_REVISED\new EARS logo option 3 - png.png"
       inkscape:export-xdpi="926.65839"
       inkscape:export-ydpi="926.65839" />
    <path
       sodipodi:type="arc"
       style="fill:#000000;fill-opacity:1;stroke:none"
       id="path3794-4-4"
       sodipodi:cx="310.71429"
       sodipodi:cy="624.50507"
       sodipodi:rx="21.428572"
       sodipodi:ry="21.428572"
       d="m 332.14287,624.50507 a 21.428572,21.428572 0 1 1 -42.85715,0 21.428572,21.428572 0 1 1 42.85715,0 z"
       transform="matrix(0.1079923,0,0,0.10799015,238.8767,62.534102)"
       inkscape:export-filename="C:\Users\Joshua\Desktop\New EARS Logo_REVISED\new EARS logo option 3 - png.png"
       inkscape:export-xdpi="926.65839"
       inkscape:export-ydpi="926.65839" />
    <path
       sodipodi:type="arc"
       style="fill:#000000;fill-opacity:1;stroke:none"
       id="path3794-0-1"
       sodipodi:cx="310.71429"
       sodipodi:cy="624.50507"
       sodipodi:rx="21.428572"
       sodipodi:ry="21.428572"
       d="m 332.14287,624.50507 a 21.428572,21.428572 0 1 1 -42.85715,0 21.428572,21.428572 0 1 1 42.85715,0 z"
       transform="matrix(0.1079923,0,0,0.10799015,258.50157,62.534102)"
       inkscape:export-filename="C:\Users\Joshua\Desktop\New EARS Logo_REVISED\new EARS logo option 3 - png.png"
       inkscape:export-xdpi="926.65839"
       inkscape:export-ydpi="926.65839" />
    <path
       sodipodi:type="arc"
       style="fill:#000000;fill-opacity:1;stroke:none"
       id="path3794-9-13"
       sodipodi:cx="310.71429"
       sodipodi:cy="624.50507"
       sodipodi:rx="21.428572"
       sodipodi:ry="21.428572"
       d="m 332.14287,624.50507 a 21.428572,21.428572 0 1 1 -42.85715,0 21.428572,21.428572 0 1 1 42.85715,0 z"
       transform="matrix(0.1079923,0,0,0.10799015,272.20829,62.534102)"
       inkscape:export-filename="C:\Users\Joshua\Desktop\New EARS Logo_REVISED\new EARS logo option 3 - png.png"
       inkscape:export-xdpi="926.65839"
       inkscape:export-ydpi="926.65839" />
    <text
       xml:space="preserve"
       style="font-size:88.82680511px;font-style:normal;font-variant:normal;font-weight:normal;font-stretch:normal;text-align:start;line-height:125%;letter-spacing:0.02867805px;word-spacing:0px;writing-mode:lr-tb;text-anchor:start;fill:#000000;fill-opacity:1;stroke:none;font-family:Trebuchet MS;-inkscape-font-specification:Trebuchet MS"
       x="115.46375"
       y="121.82626"
       id="text2996-4"
       sodipodi:linespacing="125%"
       transform="scale(0.99846663,1.0015357)"
       inkscape:export-filename="C:\Users\Joshua\Desktop\New EARS Logo_REVISED\new EARS logo option 3 - png.png"
       inkscape:export-xdpi="926.65839"
       inkscape:export-ydpi="926.65839"><tspan
         sodipodi:role="line"
         id="tspan2998-3"
         x="115.46375"
         y="121.82626"
         style="letter-spacing:6.00224352px;fill:#000000;fill-opacity:1;stroke:none">EARS</tspan></text>
    <path
       sodipodi:type="arc"
       style="fill:#000000;fill-opacity:1;stroke:none"
       id="path3794-48-87"
       sodipodi:cx="310.71429"
       sodipodi:cy="624.50507"
       sodipodi:rx="21.428572"
       sodipodi:ry="21.428572"
       d="m 332.14287,624.50507 a 21.428572,21.428572 0 1 1 -42.85715,0 21.428572,21.428572 0 1 1 42.85715,0 z"
       transform="matrix(0.1079923,0,0,0.10799015,286.27102,62.534102)"
       inkscape:export-filename="C:\Users\Joshua\Desktop\New EARS Logo_REVISED\new EARS logo option 3 - png.png"
       inkscape:export-xdpi="926.65839"
       inkscape:export-ydpi="926.65839" />
    <rect
       style="fill:#000000;fill-opacity:1;stroke:none"
       id="rect3849-4"
       width="21.183104"
       height="3.0260975"
       x="188.98792"
       y="128.46146"
       inkscape:export-filename="C:\Users\Joshua\Desktop\New EARS Logo_REVISED\new EARS logo option 3 - png.png"
       inkscape:export-xdpi="926.65839"
       inkscape:export-ydpi="926.65839" />
    <rect
       style="fill:#000000;fill-opacity:1;stroke:none"
       id="rect3849-8-27"
       width="21.183104"
       height="3.0260975"
       x="245.81908"
       y="128.46146"
       inkscape:export-filename="C:\Users\Joshua\Desktop\New EARS Logo_REVISED\new EARS logo option 3 - png.png"
       inkscape:export-xdpi="926.65839"
       inkscape:export-ydpi="926.65839" />
  </g>
</svg>
